<?xml version="1.0" encoding="utf-8"?>
<!-- Created by UniConvertor 2.0rc5 (https://sk1project.net/) -->
<svg xmlns="http://www.w3.org/2000/svg" height="200.0px" width="750.0px" version="1.1" xmlns:xlink="http://www.w3.org/1999/xlink" id="7ebe2d56-964c-11ec-b12b-a8a1598cb569">

<g>
	<path style="fill:#ffffff;" d="M 0.0,0.0 L 0.0,200.0 750.0,200.0 750.0,0.0 0.0,0.0 Z" />
	<path style="fill:#dae4fd;" d="M 245.0,3.0 L 245.0,23.0 246.0,23.0 C 246.0,16.8308 247.398,8.7147 245.0,3.0 Z" />
	<path style="fill:#7999f7;" d="M 246.0,3.0 L 246.0,23.0 C 237.016,23.0 222.745,20.397 215.329,26.652 206.143,34.401 208.882,60.2361 210.428,71.0 211.063,75.4207 211.745,80.2674 215.34,83.348 224.93,91.564 249.121,87.0 261.0,87.0 L 261.0,3.0 246.0,3.0 Z" />
	<path style="fill:#c8d6fb;" d="M 261.0,3.0 L 261.0,87.0 262.0,87.0 262.0,29.0 C 262.0,21.2563 264.004,10.1593 261.0,3.0 Z" />
	<path style="fill:#919191;" d="M 287.0,3.0 L 287.0,15.0 288.0,15.0 C 288.0,11.0168 288.552,6.6975 287.0,3.0 Z" />
	<path style="fill:#010101;" d="M 288.0,3.0 L 288.0,15.0 305.0,15.0 305.0,3.0 288.0,3.0 Z" />
	<path style="fill:#454545;" d="M 305.0,3.0 L 305.0,15.0 306.0,15.0 C 306.0,11.0168 306.552,6.6975 305.0,3.0 Z" />
	<path style="fill:#bababa;" d="M 27.0,6.0 L 27.0,16.0 28.0,16.0 C 27.9996,12.5856 28.3274,9.1633 27.0,6.0 Z" />
	<path style="fill:#010101;" d="M 28.0,6.0 L 28.0,16.0 46.0,16.0 46.0,87.0 60.0,87.0 60.0,16.0 77.0,16.0 77.0,6.0 28.0,6.0 Z" />
	<path style="fill:#919191;" d="M 77.0,6.0 L 77.0,16.0 78.0,16.0 C 77.9996,12.5856 78.3274,9.1633 77.0,6.0 Z" />
	<path style="fill:#454545;" d="M 45.0,16.0 L 45.0,87.0 46.0,87.0 46.0,38.0 C 46.0,31.3141 47.5991,22.1939 45.0,16.0 Z" />
	<path style="fill:#676767;" d="M 60.0,16.0 L 60.0,87.0 61.0,87.0 61.0,38.0 C 61.0,31.3141 62.5991,22.1939 60.0,16.0 Z" />
	<path style="fill:#919191;" d="M 103.0,23.0 L 103.0,24.0 106.0,24.0 C 104.752,23.3152 104.451,23.2512 103.0,23.0 Z" />
	<path style="fill:#343434;" d="M 106.0,23.0 L 107.0,24.0 106.0,23.0 Z" />
	<path style="fill:#010101;" d="M 90.0,87.0 L 104.0,87.0 104.015,49.0 C 104.125,44.498 104.194,37.5583 108.148,34.6034 114.202,30.0799 129.667,33.0 137.0,33.0 L 137.0,23.0 C 125.089,23.0 105.036,19.3629 95.2137,27.6381 89.7915,32.2064 90.0004,39.5666 90.0,46.0 L 90.0,87.0 Z" />
	<path style="fill:#454545;" d="M 137.0,23.0 L 137.0,33.0 138.0,33.0 C 138.0,29.5856 138.327,26.1633 137.0,23.0 Z" />
	<path style="fill:#dbdbdb;" d="M 155.0,23.0 L 155.0,33.0 156.0,33.0 C 156.0,29.5856 156.327,26.1633 155.0,23.0 Z" />
	<path style="fill:#010101;" d="M 156.0,23.0 L 156.0,33.0 C 170.485,33.0 185.998,28.4685 186.0,47.0 177.25,47.0 163.76,44.4659 156.043,49.2284 145.18,55.9328 144.972,78.2856 156.04,84.9105 166.651,91.2619 188.883,87.0 201.0,87.0 L 201.0,44.0 C 200.99,38.012 201.015,29.9642 195.671,26.0054 186.545,19.2458 166.796,23.0 156.0,23.0 Z" />
	<path style="fill:#919191;" d="M 189.0,23.0 L 189.0,24.0 192.0,24.0 C 190.752,23.3152 190.452,23.2512 189.0,23.0 Z" />
	<path style="fill:#c8d6fb;" d="M 220.0,23.0 L 220.0,24.0 223.0,24.0 C 221.752,23.3152 221.452,23.2512 220.0,23.0 Z" />
	<path style="fill:#454545;" d="M 271.0,23.0 L 271.0,33.0 272.0,33.0 C 272.0,29.5856 272.327,26.1633 271.0,23.0 Z" />
	<path style="fill:#010101;" d="M 272.0,23.0 L 272.0,33.0 289.0,33.0 289.0,77.0 272.0,77.0 272.0,87.0 321.0,87.0 321.0,77.0 304.0,77.0 304.0,23.0 272.0,23.0 Z" />
	<path style="fill:#919191;" d="M 304.0,23.0 L 304.0,77.0 305.0,77.0 305.0,41.0 C 305.0,35.3808 306.189,28.2165 304.0,23.0 Z" />
	<path style="fill:#676767;" d="M 331.0,23.0 L 331.0,87.0 332.0,87.0 332.0,43.0 C 332.0,36.846 333.395,28.7073 331.0,23.0 Z" />
	<path style="fill:#010101;" d="M 332.0,23.0 L 332.0,87.0 346.0,87.0 346.0,33.0 C 351.218,33.0 361.362,31.0567 365.581,34.6034 369.777,38.1309 369.0,45.1384 369.0,50.0 L 369.0,87.0 383.0,87.0 383.0,44.0 C 383.0,38.0474 383.737,30.8058 378.775,26.4329 369.474,18.2342 343.695,23.0 332.0,23.0 Z" />
	<path style="fill:#454545;" d="M 371.0,23.0 L 372.0,24.0 371.0,23.0 Z" />
	<path style="fill:#919191;" d="M 372.667,23.3333 C 372.222,23.7777 373.278,23.7223 373.333,23.6667 373.778,23.2221 372.722,23.2778 372.667,23.3333 Z" />
	<path style="fill:#dbdbdb;" d="M 403.0,23.0 L 404.0,24.0 403.0,23.0 Z" />
	<path style="fill:#919191;" d="M 404.667,23.3333 C 404.222,23.7777 405.278,23.7223 405.333,23.6667 405.778,23.2221 404.722,23.2778 404.667,23.3333 Z" />
	<path style="fill:#010101;" d="M 431.0,87.0 C 430.276,103.817 417.104,101.0 404.0,101.0 L 404.0,111.0 C 413.978,111.0 431.697,114.369 439.891,107.57 446.547,102.048 445.0,91.6748 445.0,84.0 L 445.0,23.0 C 433.392,23.0 408.45,18.3371 399.214,26.4298 389.84,34.6429 393.179,60.6863 394.093,72.0 394.433,76.2079 395.811,80.7526 399.133,83.5702 406.578,89.884 421.918,87.0 431.0,87.0 Z" />
	<path style="fill:#919191;" d="M 445.0,23.0 L 445.0,95.0 446.0,95.0 446.0,46.0 C 446.0,39.049 447.701,29.4361 445.0,23.0 M 100.0,24.0 L 101.0,25.0 100.0,24.0 Z" />
	<path style="fill:#565656;" d="M 193.0,24.0 L 194.0,25.0 193.0,24.0 Z" />
	<path style="fill:#bababa;" d="M 194.0,24.0 L 195.0,25.0 194.0,24.0 Z" />
	<path style="fill:#b7c9fb;" d="M 218.0,24.0 L 219.0,25.0 218.0,24.0 Z" />
	<path style="fill:#919191;" d="M 376.0,24.0 L 377.0,25.0 376.0,24.0 M 401.0,24.0 L 402.0,25.0 401.0,24.0 Z" />
	<path style="fill:#dbdbdb;" d="M 97.0,25.0 L 98.0,26.0 97.0,25.0 Z" />
	<path style="fill:#565656;" d="M 98.0,25.0 L 99.0,26.0 98.0,25.0 M 195.0,25.0 L 196.0,26.0 195.0,25.0 Z" />
	<path style="fill:#c8d6fb;" d="M 216.0,25.0 L 217.0,26.0 216.0,25.0 Z" />
	<path style="fill:#bababa;" d="M 378.0,25.0 L 379.0,26.0 378.0,25.0 M 399.0,25.0 L 400.0,26.0 399.0,25.0 Z" />
	<path style="fill:#676767;" d="M 96.0,26.0 L 97.0,27.0 96.0,26.0 Z" />
	<path style="fill:#919191;" d="M 379.0,26.0 L 380.0,27.0 379.0,26.0 M 398.0,26.0 L 399.0,27.0 398.0,26.0 Z" />
	<path style="fill:#dbdbdb;" d="M 94.0,27.0 L 95.0,28.0 94.0,27.0 Z" />
	<path style="fill:#343434;" d="M 197.0,27.0 L 198.0,28.0 197.0,27.0 Z" />
	<path style="fill:#dbdbdb;" d="M 380.0,27.0 L 381.0,28.0 380.0,27.0 Z" />
	<path style="fill:#919191;" d="M 397.0,27.0 L 398.0,28.0 397.0,27.0 Z" />
	<path style="fill:#dbdbdb;" d="M 93.0,28.0 L 94.0,29.0 93.0,28.0 Z" />
	<path style="fill:#787878;" d="M 198.0,28.0 L 199.0,29.0 198.0,28.0 Z" />
	<path style="fill:#c8d6fb;" d="M 213.0,28.0 L 214.0,29.0 213.0,28.0 Z" />
	<path style="fill:#dbdbdb;" d="M 396.0,28.0 L 397.0,29.0 396.0,28.0 Z" />
	<path style="fill:#919191;" d="M 381.0,29.0 L 382.0,30.0 381.0,29.0 Z" />
	<path style="fill:#343434;" d="M 396.0,29.0 L 397.0,30.0 396.0,29.0 Z" />
	<path style="fill:#565656;" d="M 92.0,30.0 L 93.0,31.0 92.0,30.0 Z" />
	<path style="fill:#787878;" d="M 199.0,30.0 L 200.0,31.0 199.0,30.0 Z" />
	<path style="fill:#bababa;" d="M 395.0,30.0 L 396.0,31.0 395.0,30.0 M 91.0,31.0 L 92.0,32.0 91.0,31.0 M 382.0,31.0 L 383.0,32.0 382.0,31.0 Z" />
	<path style="fill:#565656;" d="M 395.0,31.0 L 396.0,32.0 395.0,31.0 Z" />
	<path style="fill:#454545;" d="M 91.0,32.0 L 92.0,33.0 91.0,32.0 Z" />
	<path style="fill:#dbdbdb;" d="M 200.0,32.0 L 201.0,33.0 200.0,32.0 Z" />
	<path style="fill:#787878;" d="M 382.0,32.0 L 383.0,33.0 382.0,32.0 Z" />
	<path style="fill:#dbdbdb;" d="M 90.0,33.0 L 91.0,34.0 90.0,33.0 Z" />
	<path style="fill:#919191;" d="M 108.667,33.3333 C 108.222,33.7778 109.278,33.7222 109.333,33.6667 109.778,33.2222 108.722,33.2778 108.667,33.3333 M 182.0,33.0 L 183.0,34.0 182.0,33.0 M 200.0,33.0 L 201.0,34.0 200.0,33.0 Z" />
	<path style="fill:#c8d6fb;" d="M 228.0,33.0 L 229.0,34.0 228.0,33.0 Z" />
	<path style="fill:#ffffff;" d="M 245.0,77.0 L 245.0,33.0 C 240.106,33.0 231.42,31.351 227.434,34.7423 224.77,37.0078 225.017,40.8367 225.001,44.0 224.961,51.5917 222.486,68.7574 228.434,74.4861 232.4,78.3073 239.977,77.0 245.0,77.0 Z" />
	<path style="fill:#dae4fd;" d="M 245.0,33.0 L 245.0,77.0 246.0,77.0 C 246.0,64.5196 249.81,44.4634 245.0,33.0 Z" />
	<path style="fill:#dbdbdb;" d="M 288.0,33.0 L 288.0,77.0 289.0,77.0 C 289.0,64.5196 292.81,44.4634 288.0,33.0 Z" />
	<path style="fill:#232323;" d="M 346.0,33.0 L 346.0,87.0 347.0,87.0 347.0,51.0 C 347.0,45.3809 348.189,38.2165 346.0,33.0 Z" />
	<path style="fill:#bababa;" d="M 364.0,33.0 L 365.0,34.0 364.0,33.0 Z" />
	<path style="fill:#454545;" d="M 365.0,33.0 L 366.0,34.0 365.0,33.0 Z" />
	<path style="fill:#bababa;" d="M 394.0,33.0 L 395.0,34.0 394.0,33.0 Z" />
	<path style="fill:#919191;" d="M 413.667,33.3333 C 413.222,33.7777 414.278,33.7223 414.333,33.6667 414.778,33.2221 413.722,33.2778 413.667,33.3333 Z" />
	<path style="fill:#ffffff;" d="M 430.0,77.0 L 430.0,33.0 C 424.561,33.0 415.723,31.3824 411.434,35.5139 405.894,40.8501 408.835,58.788 409.015,66.0 409.09,69.0164 409.151,73.0486 411.564,75.2577 415.462,78.8256 425.077,77.0 430.0,77.0 Z" />
	<path style="fill:#232323;" d="M 430.0,33.0 L 430.0,77.0 431.0,77.0 C 431.0,64.5196 434.81,44.4634 430.0,33.0 Z" />
	<path style="fill:#787878;" d="M 90.0,34.0 L 91.0,35.0 90.0,34.0 Z" />
	<path style="fill:#dbdbdb;" d="M 107.0,34.0 L 108.0,35.0 107.0,34.0 Z" />
	<path style="fill:#454545;" d="M 184.0,34.0 L 185.0,35.0 184.0,34.0 Z" />
	<path style="fill:#343434;" d="M 200.333,34.6667 C 200.278,34.7222 200.222,35.7778 200.667,35.3333 200.722,35.2777 200.778,34.2223 200.333,34.6667 Z" />
	<path style="fill:#676767;" d="M 366.0,34.0 L 367.0,35.0 366.0,34.0 Z" />
	<path style="fill:#787878;" d="M 394.0,34.0 L 395.0,35.0 394.0,34.0 Z" />
	<path style="fill:#bababa;" d="M 411.0,34.0 L 412.0,35.0 411.0,34.0 Z" />
	<path style="fill:#343434;" d="M 90.0,35.0 L 91.0,36.0 90.0,35.0 Z" />
	<path style="fill:#bababa;" d="M 106.0,35.0 L 107.0,36.0 106.0,35.0 Z" />
	<path style="fill:#b7c9fb;" d="M 210.333,35.6667 C 210.278,35.7222 210.222,36.7778 210.667,36.3333 210.722,36.2777 210.778,35.2223 210.333,35.6667 Z" />
	<path style="fill:#343434;" d="M 394.0,35.0 L 395.0,36.0 394.0,35.0 Z" />
	<path style="fill:#bababa;" d="M 410.0,35.0 L 411.0,36.0 410.0,35.0 Z" />
	<path style="fill:#454545;" d="M 105.0,36.0 L 106.0,37.0 105.0,36.0 Z" />
	<path style="fill:#565656;" d="M 185.0,36.0 L 186.0,37.0 185.0,36.0 Z" />
	<path style="fill:#919191;" d="M 367.0,36.0 L 368.0,37.0 367.0,36.0 M 383.0,36.0 L 383.0,41.0 384.0,41.0 C 383.912,39.0359 383.779,37.7691 383.0,36.0 Z" />
	<path style="fill:#454545;" d="M 409.0,36.0 L 410.0,37.0 409.0,36.0 Z" />
	<path style="fill:#dbdbdb;" d="M 89.0,37.0 L 90.0,38.0 89.0,37.0 Z" />
	<path style="fill:#919191;" d="M 105.0,37.0 L 106.0,38.0 105.0,37.0 M 185.333,37.6667 C 185.278,37.7222 185.222,38.7778 185.667,38.3333 185.722,38.2778 185.778,37.2222 185.333,37.6667 Z" />
	<path style="fill:#dbdbdb;" d="M 367.0,37.0 L 368.0,38.0 367.0,37.0 Z" />
	<path style="fill:#919191;" d="M 409.0,37.0 L 410.0,38.0 409.0,37.0 M 89.0,38.0 L 89.0,41.0 90.0,41.0 C 89.7488,39.5485 89.6848,39.2483 89.0,38.0 Z" />
	<path style="fill:#dbdbdb;" d="M 105.333,38.6667 C 105.278,38.7222 105.222,39.7778 105.667,39.3333 105.722,39.2777 105.778,38.2223 105.333,38.6667 Z" />
	<path style="fill:#919191;" d="M 393.0,38.0 L 393.0,71.0 394.0,71.0 C 394.0,61.3992 396.711,46.8444 393.0,38.0 Z" />
	<path style="fill:#bababa;" d="M 185.0,39.0 L 185.0,47.0 186.0,47.0 C 185.993,44.1645 186.098,41.6127 185.0,39.0 M 201.0,39.0 L 201.0,87.0 202.0,87.0 C 202.0,73.4735 206.209,51.4144 201.0,39.0 Z" />
	<path style="fill:#454545;" d="M 368.0,39.0 L 368.0,87.0 369.0,87.0 C 369.0,73.4735 373.209,51.4143 368.0,39.0 Z" />
	<path style="fill:#676767;" d="M 89.0,41.0 L 89.0,87.0 90.0,87.0 C 90.0,73.9966 94.0098,52.9389 89.0,41.0 Z" />
	<path style="fill:#dae4fd;" d="M 209.0,41.0 L 209.0,69.0 210.0,69.0 C 210.0,60.7122 212.21,48.6488 209.0,41.0 Z" />
	<path style="fill:#676767;" d="M 383.0,41.0 L 383.0,87.0 384.0,87.0 C 384.0,73.9965 388.01,52.9389 383.0,41.0 Z" />
	<path style="fill:#232323;" d="M 408.0,41.0 L 408.0,68.0 409.0,68.0 C 409.0,59.9755 411.109,48.4089 408.0,41.0 M 104.0,43.0 L 104.0,87.0 105.0,87.0 C 105.0,74.5196 108.81,54.4634 104.0,43.0 Z" />
	<path style="fill:#676767;" d="M 158.667,47.3333 C 158.222,47.7778 159.278,47.7222 159.333,47.6667 159.778,47.2222 158.722,47.2778 158.667,47.3333 Z" />
	<path style="fill:#919191;" d="M 156.0,48.0 L 157.0,49.0 156.0,48.0 Z" />
	<path style="fill:#343434;" d="M 155.0,49.0 L 156.0,50.0 155.0,49.0 Z" />
	<path style="fill:#dbdbdb;" d="M 153.0,50.0 L 154.0,51.0 153.0,50.0 Z" />
	<path style="fill:#676767;" d="M 151.0,53.0 L 152.0,54.0 151.0,53.0 Z" />
	<path style="fill:#dbdbdb;" d="M 150.0,54.0 L 151.0,55.0 150.0,54.0 Z" />
	<path style="fill:#454545;" d="M 150.0,55.0 L 151.0,56.0 150.0,55.0 Z" />
	<path style="fill:#dbdbdb;" d="M 149.0,56.0 L 150.0,57.0 149.0,56.0 Z" />
	<path style="fill:#787878;" d="M 149.0,57.0 L 150.0,58.0 149.0,57.0 Z" />
	<path style="fill:#919191;" d="M 167.667,57.3333 C 167.222,57.7778 168.278,57.7222 168.333,57.6667 168.778,57.2222 167.722,57.2778 167.667,57.3333 Z" />
	<path style="fill:#dbdbdb;" d="M 169.0,57.0 L 170.0,58.0 169.0,57.0 Z" />
	<path style="fill:#ffffff;" d="M 185.0,77.0 L 185.0,57.0 C 179.485,57.0 171.032,55.5311 166.279,58.9383 161.895,62.0805 161.578,72.919 166.303,75.9722 170.662,78.7887 179.958,77.0 185.0,77.0 Z" />
	<path style="fill:#bababa;" d="M 185.0,57.0 L 185.0,77.0 186.0,77.0 C 186.0,70.8308 187.398,62.7147 185.0,57.0 Z" />
	<path style="fill:#565656;" d="M 165.0,58.0 L 166.0,59.0 165.0,58.0 Z" />
	<path style="fill:#dbdbdb;" d="M 148.0,59.0 L 149.0,60.0 148.0,59.0 Z" />
	<path style="fill:#787878;" d="M 164.0,59.0 L 165.0,60.0 164.0,59.0 Z" />
	<path style="fill:#919191;" d="M 148.0,60.0 L 149.0,61.0 148.0,60.0 Z" />
	<path style="fill:#565656;" d="M 148.0,61.0 L 149.0,62.0 148.0,61.0 Z" />
	<path style="fill:#919191;" d="M 163.0,61.0 L 164.0,62.0 163.0,61.0 Z" />
	<path style="fill:#bababa;" d="M 163.0,62.0 L 164.0,63.0 163.0,62.0 Z" />
	<path style="fill:#dae4fd;" d="M 225.0,63.0 L 225.0,69.0 226.0,69.0 C 225.953,66.7472 225.874,65.0521 225.0,63.0 Z" />
	<path style="fill:#dbdbdb;" d="M 147.333,64.6667 C 147.278,64.7222 147.222,65.7778 147.667,65.3333 147.722,65.2778 147.778,64.2222 147.333,64.6667 Z" />
	<path style="fill:#232323;" d="M 162.0,65.0 L 162.0,68.0 163.0,68.0 C 162.749,66.5484 162.685,66.2483 162.0,65.0 Z" />
	<path style="fill:#bababa;" d="M 147.333,66.6667 C 147.278,66.7222 147.222,67.7778 147.667,67.3333 147.722,67.2778 147.778,66.2222 147.333,66.6667 Z" />
	<path style="fill:#dbdbdb;" d="M 147.333,68.6667 C 147.278,68.7222 147.222,69.7778 147.667,69.3333 147.722,69.2778 147.778,68.2222 147.333,68.6667 Z" />
	<path style="fill:#bababa;" d="M 163.0,71.0 L 164.0,72.0 163.0,71.0 Z" />
	<path style="fill:#a4baf9;" d="M 210.0,71.0 L 210.0,74.0 211.0,74.0 C 210.749,72.5484 210.685,72.2484 210.0,71.0 Z" />
	<path style="fill:#dbdbdb;" d="M 393.333,71.6667 C 393.278,71.7222 393.222,72.7778 393.667,72.3333 393.722,72.2777 393.778,71.2223 393.333,71.6667 Z" />
	<path style="fill:#bababa;" d="M 409.333,71.6667 C 409.278,71.7222 409.222,72.7778 409.667,72.3333 409.722,72.2777 409.778,71.2223 409.333,71.6667 Z" />
	<path style="fill:#454545;" d="M 148.0,72.0 L 149.0,73.0 148.0,72.0 Z" />
	<path style="fill:#919191;" d="M 163.0,72.0 L 164.0,73.0 163.0,72.0 Z" />
	<path style="fill:#c8d6fb;" d="M 226.0,72.0 L 227.0,73.0 226.0,72.0 Z" />
	<path style="fill:#787878;" d="M 148.0,73.0 L 149.0,74.0 148.0,73.0 Z" />
	<path style="fill:#565656;" d="M 163.0,73.0 L 164.0,74.0 163.0,73.0 Z" />
	<path style="fill:#676767;" d="M 409.0,73.0 L 410.0,74.0 409.0,73.0 Z" />
	<path style="fill:#bababa;" d="M 148.0,74.0 L 149.0,75.0 148.0,74.0 Z" />
	<path style="fill:#919191;" d="M 164.0,75.0 L 165.0,76.0 164.0,75.0 Z" />
	<path style="fill:#565656;" d="M 394.0,75.0 L 395.0,76.0 394.0,75.0 M 410.0,75.0 L 411.0,76.0 410.0,75.0 M 149.0,76.0 L 150.0,77.0 149.0,76.0 Z" />
	<path style="fill:#919191;" d="M 165.0,76.0 L 166.0,77.0 165.0,76.0 Z" />
	<path style="fill:#c8d6fb;" d="M 230.667,76.3333 C 230.222,76.7777 231.278,76.7223 231.333,76.6667 231.778,76.2222 230.722,76.2778 230.667,76.3333 Z" />
	<path style="fill:#919191;" d="M 394.0,76.0 L 395.0,77.0 394.0,76.0 Z" />
	<path style="fill:#343434;" d="M 411.0,76.0 L 412.0,77.0 411.0,76.0 Z" />
	<path style="fill:#919191;" d="M 412.0,76.0 L 413.0,77.0 412.0,76.0 Z" />
	<path style="fill:#bababa;" d="M 149.0,77.0 L 150.0,78.0 149.0,77.0 Z" />
	<path style="fill:#454545;" d="M 271.0,77.0 L 271.0,87.0 272.0,87.0 C 272.0,83.5856 272.327,80.1633 271.0,77.0 M 321.0,77.0 L 321.0,87.0 322.0,87.0 C 322.0,83.5856 322.327,80.1633 321.0,77.0 Z" />
	<path style="fill:#dbdbdb;" d="M 394.0,77.0 L 395.0,78.0 394.0,77.0 Z" />
	<path style="fill:#343434;" d="M 395.0,78.0 L 396.0,79.0 395.0,78.0 Z" />
	<path style="fill:#919191;" d="M 150.0,79.0 L 151.0,80.0 150.0,79.0 M 395.0,79.0 L 396.0,80.0 395.0,79.0 Z" />
	<path style="fill:#454545;" d="M 151.0,80.0 L 152.0,81.0 151.0,80.0 Z" />
	<path style="fill:#b7c9fb;" d="M 213.0,81.0 L 214.0,82.0 213.0,81.0 Z" />
	<path style="fill:#bababa;" d="M 396.0,81.0 L 397.0,82.0 396.0,81.0 M 152.0,82.0 L 153.0,83.0 152.0,82.0 Z" />
	<path style="fill:#787878;" d="M 397.0,82.0 L 398.0,83.0 397.0,82.0 Z" />
	<path style="fill:#bababa;" d="M 153.0,83.0 L 154.0,84.0 153.0,83.0 Z" />
	<path style="fill:#676767;" d="M 398.0,83.0 L 399.0,84.0 398.0,83.0 Z" />
	<path style="fill:#dbdbdb;" d="M 154.0,84.0 L 155.0,85.0 154.0,84.0 Z" />
	<path style="fill:#c8d6fb;" d="M 216.0,84.0 L 217.0,85.0 216.0,84.0 Z" />
	<path style="fill:#919191;" d="M 399.0,84.0 L 400.0,85.0 399.0,84.0 Z" />
	<path style="fill:#787878;" d="M 156.0,85.0 L 157.0,86.0 156.0,85.0 Z" />
	<path style="fill:#b7c9fb;" d="M 218.0,85.0 L 219.0,86.0 218.0,85.0 Z" />
	<path style="fill:#919191;" d="M 401.0,85.0 L 402.0,86.0 401.0,85.0 Z" />
	<path style="fill:#676767;" d="M 158.667,86.3333 C 158.222,86.7777 159.278,86.7223 159.333,86.6667 159.778,86.2222 158.722,86.2778 158.667,86.3333 Z" />
	<path style="fill:#c8d6fb;" d="M 220.0,86.0 L 220.0,87.0 223.0,87.0 C 221.752,86.3152 221.452,86.2512 220.0,86.0 Z" />
	<path style="fill:#dbdbdb;" d="M 403.0,86.0 L 404.0,87.0 403.0,86.0 Z" />
	<path style="fill:#919191;" d="M 404.667,86.3333 C 404.222,86.7779 405.278,86.7221 405.333,86.6667 405.778,86.2224 404.722,86.2777 404.667,86.3333 Z" />
	<path style="fill:#232323;" d="M 430.0,87.0 L 430.0,93.0 431.0,93.0 C 430.953,90.7472 430.874,89.0521 430.0,87.0 Z" />
	<path style="fill:#dbdbdb;" d="M 429.0,95.0 L 430.0,96.0 429.0,95.0 M 445.333,95.6667 C 445.278,95.7222 445.222,96.7777 445.667,96.3333 445.722,96.2777 445.778,95.2222 445.333,95.6667 Z" />
	<path style="fill:#919191;" d="M 429.0,96.0 L 430.0,97.0 429.0,96.0 Z" />
	<path style="fill:#454545;" d="M 429.0,97.0 L 430.0,98.0 429.0,97.0 Z" />
	<path style="fill:#919191;" d="M 428.0,98.0 L 429.0,99.0 428.0,98.0 M 427.0,99.0 L 428.0,100.0 427.0,99.0 Z" />
	<path style="fill:#565656;" d="M 444.0,99.0 L 445.0,100.0 444.0,99.0 Z" />
	<path style="fill:#bababa;" d="M 423.0,100.0 L 424.0,101.0 423.0,100.0 Z" />
	<path style="fill:#919191;" d="M 424.667,100.333 C 424.222,100.778 425.278,100.722 425.333,100.667 425.778,100.222 424.722,100.278 424.667,100.333 M 444.0,100.0 L 445.0,101.0 444.0,100.0 Z" />
	<path style="fill:#dbdbdb;" d="M 403.0,101.0 L 403.0,111.0 404.0,111.0 C 404.0,107.586 404.327,104.163 403.0,101.0 M 444.0,101.0 L 445.0,102.0 444.0,101.0 Z" />
	<path style="fill:#919191;" d="M 443.0,103.0 L 444.0,104.0 443.0,103.0 M 442.0,105.0 L 443.0,106.0 442.0,105.0 Z" />
	<path style="fill:#565656;" d="M 441.0,106.0 L 442.0,107.0 441.0,106.0 Z" />
	<path style="fill:#454545;" d="M 440.0,107.0 L 441.0,108.0 440.0,107.0 Z" />
	<path style="fill:#919191;" d="M 439.0,108.0 L 440.0,109.0 439.0,108.0 Z" />
	<path style="fill:#787878;" d="M 437.0,109.0 L 438.0,110.0 437.0,109.0 Z" />
	<path style="fill:#919191;" d="M 433.0,110.0 L 433.0,111.0 436.0,111.0 C 434.752,110.315 434.452,110.251 433.0,110.0 Z" />
	<path style="fill:#454545;" d="M 277.0,112.0 L 277.0,122.0 278.0,122.0 C 278.0,118.586 278.327,115.163 277.0,112.0 Z" />
	<path style="fill:#010101;" d="M 278.0,112.0 L 278.0,122.0 295.0,122.0 295.0,186.0 278.0,186.0 278.0,196.0 327.0,196.0 327.0,186.0 310.0,186.0 310.0,112.0 278.0,112.0 Z" />
	<path style="fill:#dbdbdb;" d="M 310.0,112.0 L 310.0,186.0 311.0,186.0 311.0,135.0 C 311.0,128.049 312.701,118.436 310.0,112.0 Z" />
	<path style="fill:#919191;" d="M 484.0,112.0 L 484.0,113.0 487.0,113.0 C 485.752,112.315 485.452,112.251 484.0,112.0 Z" />
	<path style="fill:#010101;" d="M 475.0,132.0 L 461.0,132.0 461.0,142.0 475.0,142.0 475.0,196.0 490.0,196.0 490.0,142.0 504.0,142.0 504.0,132.0 490.0,132.0 C 490.649,120.144 500.908,122.0 510.0,122.0 L 510.0,112.0 C 492.538,112.0 475.462,109.612 475.0,132.0 Z" />
	<path style="fill:#232323;" d="M 510.0,112.0 L 510.0,122.0 511.0,122.0 C 511.0,118.586 511.327,115.163 510.0,112.0 Z" />
	<path style="fill:#bababa;" d="M 481.0,113.0 L 482.0,114.0 481.0,113.0 Z" />
	<path style="fill:#454545;" d="M 482.0,113.0 L 483.0,114.0 482.0,113.0 Z" />
	<path style="fill:#565656;" d="M 480.0,114.0 L 481.0,115.0 480.0,114.0 Z" />
	<path style="fill:#c8d6fb;" d="M 215.0,115.0 L 215.0,196.0 216.0,196.0 216.0,140.0 C 216.0,132.52 217.903,121.919 215.0,115.0 Z" />
	<path style="fill:#7999f7;" d="M 216.0,115.0 L 216.0,196.0 231.0,196.0 231.0,165.0 C 239.117,165.0 252.008,167.414 258.957,162.436 270.477,154.183 270.364,125.966 258.907,117.703 249.347,110.808 227.37,115.0 216.0,115.0 Z" />
	<path style="fill:#c8d6fb;" d="M 254.667,115.333 C 254.222,115.778 255.278,115.722 255.333,115.667 255.778,115.222 254.722,115.278 254.667,115.333 Z" />
	<path style="fill:#232323;" d="M 414.0,115.0 L 414.0,132.0 415.0,132.0 C 415.0,126.638 416.087,119.974 414.0,115.0 Z" />
	<path style="fill:#010101;" d="M 415.0,115.0 L 415.0,132.0 400.0,132.0 400.0,142.0 415.0,142.0 415.0,178.0 C 415.0,182.949 414.132,188.904 418.228,192.567 423.796,197.546 434.133,196.0 441.0,196.0 L 441.0,186.0 C 422.463,185.935 429.0,155.292 429.0,142.0 L 449.0,142.0 449.0,132.0 429.0,132.0 429.0,115.0 415.0,115.0 Z" />
	<path style="fill:#454545;" d="M 429.0,115.0 L 429.0,132.0 430.0,132.0 C 430.0,126.638 431.087,119.974 429.0,115.0 Z" />
	<path style="fill:#343434;" d="M 479.0,115.0 L 480.0,116.0 479.0,115.0 Z" />
	<path style="fill:#c8d6fb;" d="M 257.0,116.0 L 258.0,117.0 257.0,116.0 Z" />
	<path style="fill:#343434;" d="M 478.0,116.0 L 479.0,117.0 478.0,116.0 Z" />
	<path style="fill:#919191;" d="M 477.0,117.0 L 478.0,118.0 477.0,117.0 M 476.0,119.0 L 477.0,120.0 476.0,119.0 Z" />
	<path style="fill:#343434;" d="M 476.0,120.0 L 477.0,121.0 476.0,120.0 Z" />
	<path style="fill:#c8d6fb;" d="M 262.0,121.0 L 263.0,122.0 262.0,121.0 Z" />
	<path style="fill:#919191;" d="M 294.0,122.0 L 294.0,186.0 295.0,186.0 295.0,142.0 C 295.0,135.846 296.395,127.707 294.0,122.0 M 475.333,122.667 C 475.278,122.722 475.222,123.778 475.667,123.333 475.722,123.278 475.778,122.222 475.333,122.667 M 493.0,122.0 L 494.0,123.0 493.0,122.0 Z" />
	<path style="fill:#dbdbdb;" d="M 494.0,122.0 L 495.0,123.0 494.0,122.0 M 492.0,123.0 L 493.0,124.0 492.0,123.0 Z" />
	<path style="fill:#454545;" d="M 475.333,124.667 C 475.278,124.722 475.222,125.778 475.667,125.333 475.722,125.278 475.778,124.222 475.333,124.667 Z" />
	<path style="fill:#919191;" d="M 491.0,124.0 L 492.0,125.0 491.0,124.0 Z" />
	<path style="fill:#dae4fd;" d="M 231.0,125.0 L 231.0,155.0 232.0,155.0 C 232.0,146.186 234.411,133.128 231.0,125.0 Z" />
	<path style="fill:#ffffff;" d="M 232.0,125.0 L 232.0,155.0 C 236.876,155.0 244.632,156.444 248.721,153.258 254.025,149.125 253.952,130.939 248.697,126.742 244.678,123.533 236.826,125.0 232.0,125.0 Z" />
	<path style="fill:#787878;" d="M 490.0,126.0 L 490.0,129.0 491.0,129.0 C 490.749,127.548 490.685,127.248 490.0,126.0 Z" />
	<path style="fill:#a4baf9;" d="M 265.333,127.667 C 265.278,127.722 265.222,128.778 265.667,128.333 265.722,128.278 265.778,127.222 265.333,127.667 Z" />
	<path style="fill:#bababa;" d="M 490.0,129.0 L 490.0,132.0 491.0,132.0 C 490.749,130.548 490.685,130.248 490.0,129.0 Z" />
	<path style="fill:#dae4fd;" d="M 251.333,130.667 C 251.278,130.722 251.222,131.778 251.667,131.333 251.722,131.278 251.778,130.222 251.333,130.667 Z" />
	<path style="fill:#dbdbdb;" d="M 474.333,130.667 C 474.278,130.722 474.222,131.778 474.667,131.333 474.722,131.278 474.778,130.222 474.333,130.667 Z" />
	<path style="fill:#a4baf9;" d="M 266.0,131.0 L 266.0,134.0 267.0,134.0 C 266.749,132.548 266.685,132.248 266.0,131.0 Z" />
	<path style="fill:#dbdbdb;" d="M 344.0,132.0 L 344.0,142.0 345.0,142.0 C 345.0,138.586 345.327,135.163 344.0,132.0 Z" />
	<path style="fill:#010101;" d="M 345.0,132.0 L 345.0,142.0 C 359.485,142.0 374.998,137.469 375.0,156.0 366.25,156.0 352.76,153.466 345.043,158.228 334.18,164.933 333.972,187.286 345.04,193.91 355.651,200.262 377.883,196.0 390.0,196.0 L 390.0,153.0 C 389.99,147.012 390.015,138.964 384.671,135.005 375.545,128.246 355.796,132.0 345.0,132.0 Z" />
	<path style="fill:#919191;" d="M 378.0,132.0 L 378.0,133.0 381.0,133.0 C 379.752,132.315 379.452,132.251 378.0,132.0 Z" />
	<path style="fill:#454545;" d="M 399.0,132.0 L 399.0,142.0 400.0,142.0 C 400.0,138.586 400.327,135.163 399.0,132.0 Z" />
	<path style="fill:#232323;" d="M 449.0,132.0 L 449.0,142.0 450.0,142.0 C 450.0,138.586 450.327,135.163 449.0,132.0 Z" />
	<path style="fill:#454545;" d="M 460.0,132.0 L 460.0,142.0 461.0,142.0 C 461.0,138.586 461.327,135.163 460.0,132.0 Z" />
	<path style="fill:#bababa;" d="M 504.0,132.0 L 504.0,142.0 505.0,142.0 C 505.0,138.586 505.327,135.163 504.0,132.0 Z" />
	<path style="fill:#919191;" d="M 529.0,132.0 L 529.0,133.0 532.0,133.0 C 530.752,132.315 530.452,132.251 529.0,132.0 Z" />
	<path style="fill:#010101;" d="M 532.0,132.468 C 514.861,135.791 520.0,160.185 520.0,173.0 520.0,178.652 519.253,185.068 522.703,189.956 529.134,199.07 551.198,197.432 561.0,195.532 578.045,192.227 573.0,167.733 573.0,155.0 573.0,149.348 573.747,142.932 570.297,138.044 563.866,128.93 541.802,130.568 532.0,132.468 Z" />
	<path style="fill:#919191;" d="M 561.0,132.0 L 561.0,133.0 564.0,133.0 C 562.752,132.315 562.452,132.251 561.0,132.0 M 598.0,132.0 L 598.0,133.0 601.0,133.0 C 599.752,132.315 599.451,132.251 598.0,132.0 Z" />
	<path style="fill:#343434;" d="M 601.0,132.0 L 602.0,133.0 601.0,132.0 Z" />
	<path style="fill:#010101;" d="M 585.0,196.0 L 599.0,196.0 599.015,158.0 C 599.125,153.498 599.194,146.558 603.148,143.603 609.202,139.08 624.667,142.0 632.0,142.0 L 632.0,132.0 C 620.089,132.0 600.036,128.363 590.214,136.638 584.791,141.206 585.0,148.566 585.0,155.0 L 585.0,196.0 Z" />
	<path style="fill:#454545;" d="M 632.0,132.0 L 632.0,142.0 633.0,142.0 C 633.0,138.586 633.327,135.163 632.0,132.0 Z" />
	<path style="fill:#bababa;" d="M 642.0,132.0 L 642.0,196.0 643.0,196.0 643.0,152.0 C 643.0,145.846 644.395,137.707 642.0,132.0 Z" />
	<path style="fill:#010101;" d="M 643.0,132.0 L 643.0,196.0 656.0,196.0 656.0,142.0 664.0,142.0 664.0,196.0 674.0,196.0 674.0,142.0 C 682.449,142.639 682.997,148.809 683.0,156.0 L 683.0,196.0 696.0,196.0 696.0,154.0 C 696.0,147.534 696.39,139.992 690.891,135.43 680.941,127.173 655.299,132.0 643.0,132.0 Z" />
	<path style="fill:#919191;" d="M 684.0,132.0 L 684.0,133.0 687.0,133.0 C 685.752,132.315 685.452,132.251 684.0,132.0 Z" />
	<path style="fill:#a4baf9;" d="M 252.333,133.667 C 252.278,133.722 252.222,134.778 252.667,134.333 252.722,134.278 252.778,133.222 252.333,133.667 Z" />
	<path style="fill:#565656;" d="M 382.0,133.0 L 383.0,134.0 382.0,133.0 Z" />
	<path style="fill:#bababa;" d="M 383.0,133.0 L 384.0,134.0 383.0,133.0 Z" />
	<path style="fill:#dbdbdb;" d="M 526.0,133.0 L 527.0,134.0 526.0,133.0 Z" />
	<path style="fill:#676767;" d="M 527.0,133.0 L 528.0,134.0 527.0,133.0 Z" />
	<path style="fill:#787878;" d="M 565.0,133.0 L 566.0,134.0 565.0,133.0 Z" />
	<path style="fill:#919191;" d="M 595.0,133.0 L 596.0,134.0 595.0,133.0 Z" />
	<path style="fill:#565656;" d="M 688.0,133.0 L 689.0,134.0 688.0,133.0 Z" />
	<path style="fill:#bababa;" d="M 689.0,133.0 L 690.0,134.0 689.0,133.0 Z" />
	<path style="fill:#565656;" d="M 384.0,134.0 L 385.0,135.0 384.0,134.0 Z" />
	<path style="fill:#676767;" d="M 525.0,134.0 L 526.0,135.0 525.0,134.0 Z" />
	<path style="fill:#919191;" d="M 567.0,134.0 L 568.0,135.0 567.0,134.0 Z" />
	<path style="fill:#dbdbdb;" d="M 592.0,134.0 L 593.0,135.0 592.0,134.0 Z" />
	<path style="fill:#565656;" d="M 593.0,134.0 L 594.0,135.0 593.0,134.0 M 690.0,134.0 L 691.0,135.0 690.0,134.0 Z" />
	<path style="fill:#c8d6fb;" d="M 252.0,135.0 L 252.0,145.0 253.0,145.0 C 253.0,141.586 253.327,138.163 252.0,135.0 M 267.0,135.0 L 267.0,144.0 268.0,144.0 C 267.998,140.874 268.213,137.89 267.0,135.0 Z" />
	<path style="fill:#343434;" d="M 524.0,135.0 L 525.0,136.0 524.0,135.0 Z" />
	<path style="fill:#454545;" d="M 568.0,135.0 L 569.0,136.0 568.0,135.0 Z" />
	<path style="fill:#676767;" d="M 591.0,135.0 L 592.0,136.0 591.0,135.0 Z" />
	<path style="fill:#343434;" d="M 691.0,135.0 L 692.0,136.0 691.0,135.0 M 386.0,136.0 L 387.0,137.0 386.0,136.0 M 523.0,136.0 L 524.0,137.0 523.0,136.0 Z" />
	<path style="fill:#454545;" d="M 569.0,136.0 L 570.0,137.0 569.0,136.0 Z" />
	<path style="fill:#dbdbdb;" d="M 589.0,136.0 L 590.0,137.0 589.0,136.0 Z" />
	<path style="fill:#343434;" d="M 692.0,136.0 L 693.0,137.0 692.0,136.0 Z" />
	<path style="fill:#787878;" d="M 387.0,137.0 L 388.0,138.0 387.0,137.0 Z" />
	<path style="fill:#676767;" d="M 522.0,137.0 L 523.0,138.0 522.0,137.0 Z" />
	<path style="fill:#919191;" d="M 570.0,137.0 L 571.0,138.0 570.0,137.0 Z" />
	<path style="fill:#dbdbdb;" d="M 588.0,137.0 L 589.0,138.0 588.0,137.0 Z" />
	<path style="fill:#787878;" d="M 693.0,137.0 L 694.0,138.0 693.0,137.0 Z" />
	<path style="fill:#bababa;" d="M 521.0,138.0 L 522.0,139.0 521.0,138.0 Z" />
	<path style="fill:#787878;" d="M 388.0,139.0 L 389.0,140.0 388.0,139.0 Z" />
	<path style="fill:#454545;" d="M 521.0,139.0 L 522.0,140.0 521.0,139.0 Z" />
	<path style="fill:#676767;" d="M 571.0,139.0 L 572.0,140.0 571.0,139.0 Z" />
	<path style="fill:#565656;" d="M 587.0,139.0 L 588.0,140.0 587.0,139.0 Z" />
	<path style="fill:#676767;" d="M 694.0,139.0 L 695.0,140.0 694.0,139.0 Z" />
	<path style="fill:#bababa;" d="M 586.0,140.0 L 587.0,141.0 586.0,140.0 Z" />
	<path style="fill:#dbdbdb;" d="M 389.0,141.0 L 390.0,142.0 389.0,141.0 Z" />
	<path style="fill:#919191;" d="M 520.0,141.0 L 521.0,142.0 520.0,141.0 M 572.0,141.0 L 573.0,142.0 572.0,141.0 Z" />
	<path style="fill:#454545;" d="M 586.0,141.0 L 587.0,142.0 586.0,141.0 Z" />
	<path style="fill:#bababa;" d="M 695.0,141.0 L 696.0,142.0 695.0,141.0 Z" />
	<path style="fill:#919191;" d="M 371.0,142.0 L 372.0,143.0 371.0,142.0 M 389.0,142.0 L 390.0,143.0 389.0,142.0 Z" />
	<path style="fill:#232323;" d="M 414.0,142.0 L 414.0,184.0 415.0,184.0 C 415.0,172.043 418.611,152.988 414.0,142.0 Z" />
	<path style="fill:#454545;" d="M 429.0,142.0 L 429.0,179.0 430.0,179.0 C 430.0,168.351 433.111,151.798 429.0,142.0 Z" />
	<path style="fill:#dbdbdb;" d="M 474.0,142.0 L 474.0,196.0 475.0,196.0 475.0,160.0 C 475.0,154.381 476.189,147.216 474.0,142.0 Z" />
	<path style="fill:#bababa;" d="M 490.0,142.0 L 490.0,196.0 491.0,196.0 491.0,160.0 C 491.0,154.381 492.189,147.216 490.0,142.0 Z" />
	<path style="fill:#919191;" d="M 538.0,142.0 L 539.0,143.0 538.0,142.0 Z" />
	<path style="fill:#ffffff;" d="M 539.225,142.742 C 533.747,145.264 535.0,154.147 535.0,159.0 535.0,171.079 533.769,194.547 553.772,185.258 559.066,182.799 558.0,173.726 558.0,169.0 558.001,156.848 559.337,133.482 539.225,142.742 Z" />
	<path style="fill:#919191;" d="M 554.0,142.0 L 555.0,143.0 554.0,142.0 Z" />
	<path style="fill:#454545;" d="M 572.0,142.0 L 573.0,143.0 572.0,142.0 Z" />
	<path style="fill:#dbdbdb;" d="M 585.0,142.0 L 586.0,143.0 585.0,142.0 Z" />
	<path style="fill:#919191;" d="M 603.667,142.333 C 603.222,142.778 604.278,142.722 604.333,142.667 604.778,142.222 603.722,142.278 603.667,142.333 Z" />
	<path style="fill:#454545;" d="M 656.0,142.0 L 656.0,196.0 657.0,196.0 657.0,160.0 C 657.0,154.381 658.189,147.216 656.0,142.0 Z" />
	<path style="fill:#dbdbdb;" d="M 663.0,142.0 L 663.0,196.0 664.0,196.0 664.0,160.0 C 664.0,154.381 665.189,147.216 663.0,142.0 Z" />
	<path style="fill:#919191;" d="M 674.0,142.0 L 674.0,196.0 675.0,196.0 675.0,160.0 C 675.0,154.381 676.189,147.216 674.0,142.0 M 679.0,142.0 L 680.0,143.0 679.0,142.0 Z" />
	<path style="fill:#787878;" d="M 695.0,142.0 L 696.0,143.0 695.0,142.0 Z" />
	<path style="fill:#454545;" d="M 373.0,143.0 L 374.0,144.0 373.0,143.0 Z" />
	<path style="fill:#343434;" d="M 389.333,143.667 C 389.278,143.722 389.222,144.778 389.667,144.333 389.722,144.278 389.778,143.222 389.333,143.667 Z" />
	<path style="fill:#787878;" d="M 585.0,143.0 L 586.0,144.0 585.0,143.0 Z" />
	<path style="fill:#dbdbdb;" d="M 602.0,143.0 L 603.0,144.0 602.0,143.0 Z" />
	<path style="fill:#454545;" d="M 695.0,143.0 L 696.0,144.0 695.0,143.0 Z" />
	<path style="fill:#bababa;" d="M 519.333,144.667 C 519.278,144.722 519.222,145.778 519.667,145.333 519.722,145.278 519.778,144.222 519.333,144.667 M 536.0,144.0 L 537.0,145.0 536.0,144.0 M 556.0,144.0 L 557.0,145.0 556.0,144.0 Z" />
	<path style="fill:#dbdbdb;" d="M 573.0,144.0 L 574.0,145.0 573.0,144.0 Z" />
	<path style="fill:#343434;" d="M 585.0,144.0 L 586.0,145.0 585.0,144.0 Z" />
	<path style="fill:#bababa;" d="M 601.0,144.0 L 602.0,145.0 601.0,144.0 M 681.0,144.0 L 682.0,145.0 681.0,144.0 Z" />
	<path style="fill:#565656;" d="M 374.0,145.0 L 375.0,146.0 374.0,145.0 Z" />
	<path style="fill:#343434;" d="M 535.0,145.0 L 536.0,146.0 535.0,145.0 M 557.0,145.0 L 558.0,146.0 557.0,145.0 Z" />
	<path style="fill:#787878;" d="M 573.0,145.0 L 573.0,148.0 574.0,148.0 C 573.749,146.548 573.685,146.248 573.0,145.0 Z" />
	<path style="fill:#454545;" d="M 600.0,145.0 L 601.0,146.0 600.0,145.0 Z" />
	<path style="fill:#919191;" d="M 374.333,146.667 C 374.278,146.722 374.222,147.778 374.667,147.333 374.722,147.278 374.778,146.222 374.333,146.667 Z" />
	<path style="fill:#787878;" d="M 519.0,146.0 L 519.0,149.0 520.0,149.0 C 519.749,147.548 519.685,147.248 519.0,146.0 M 535.0,146.0 L 536.0,147.0 535.0,146.0 M 557.0,146.0 L 558.0,147.0 557.0,146.0 Z" />
	<path style="fill:#dbdbdb;" d="M 584.0,146.0 L 585.0,147.0 584.0,146.0 Z" />
	<path style="fill:#919191;" d="M 600.0,146.0 L 601.0,147.0 600.0,146.0 M 682.333,146.667 C 682.278,146.722 682.222,147.778 682.667,147.333 682.722,147.278 682.778,146.222 682.333,146.667 Z" />
	<path style="fill:#bababa;" d="M 696.0,146.0 L 696.0,149.0 697.0,149.0 C 696.749,147.548 696.685,147.248 696.0,146.0 M 535.0,147.0 L 536.0,148.0 535.0,147.0 M 557.0,147.0 L 558.0,148.0 557.0,147.0 Z" />
	<path style="fill:#919191;" d="M 584.0,147.0 L 584.0,150.0 585.0,150.0 C 584.749,148.548 584.685,148.248 584.0,147.0 Z" />
	<path style="fill:#dbdbdb;" d="M 600.333,147.667 C 600.278,147.722 600.222,148.778 600.667,148.333 600.722,148.278 600.778,147.222 600.333,147.667 Z" />
	<path style="fill:#c8d6fb;" d="M 266.333,148.667 C 266.278,148.722 266.222,149.778 266.667,149.333 266.722,149.278 266.778,148.222 266.333,148.667 Z" />
	<path style="fill:#bababa;" d="M 374.0,148.0 L 374.0,156.0 375.0,156.0 C 374.993,153.164 375.098,150.613 374.0,148.0 M 390.0,148.0 L 390.0,196.0 391.0,196.0 C 391.0,182.474 395.209,160.414 390.0,148.0 Z" />
	<path style="fill:#232323;" d="M 573.0,148.0 L 573.0,180.0 574.0,180.0 C 574.0,170.661 576.611,156.606 573.0,148.0 Z" />
	<path style="fill:#dbdbdb;" d="M 682.0,148.0 L 682.0,196.0 683.0,196.0 C 683.0,182.474 687.209,160.414 682.0,148.0 Z" />
	<path style="fill:#454545;" d="M 519.0,149.0 L 519.0,179.0 520.0,179.0 C 520.0,170.186 522.411,157.128 519.0,149.0 Z" />
	<path style="fill:#919191;" d="M 696.0,149.0 L 696.0,196.0 697.0,196.0 C 697.0,182.735 701.11,161.176 696.0,149.0 Z" />
	<path style="fill:#676767;" d="M 584.0,150.0 L 584.0,196.0 585.0,196.0 C 585.0,182.997 589.01,161.939 584.0,150.0 Z" />
	<path style="fill:#232323;" d="M 534.0,151.0 L 534.0,176.0 535.0,176.0 C 535.0,168.503 536.907,157.928 534.0,151.0 M 558.0,151.0 L 558.0,176.0 559.0,176.0 C 559.0,168.503 560.907,157.928 558.0,151.0 Z" />
	<path style="fill:#dae4fd;" d="M 265.333,152.667 C 265.278,152.722 265.222,153.778 265.667,153.333 265.722,153.278 265.778,152.222 265.333,152.667 Z" />
	<path style="fill:#232323;" d="M 599.0,152.0 L 599.0,196.0 600.0,196.0 C 600.0,183.52 603.81,163.463 599.0,152.0 Z" />
	<path style="fill:#676767;" d="M 347.667,156.333 C 347.222,156.778 348.278,156.722 348.333,156.667 348.778,156.222 347.722,156.278 347.667,156.333 Z" />
	<path style="fill:#c8d6fb;" d="M 263.0,157.0 L 264.0,158.0 263.0,157.0 Z" />
	<path style="fill:#919191;" d="M 345.0,157.0 L 346.0,158.0 345.0,157.0 Z" />
	<path style="fill:#343434;" d="M 344.0,158.0 L 345.0,159.0 344.0,158.0 Z" />
	<path style="fill:#dbdbdb;" d="M 342.0,159.0 L 343.0,160.0 342.0,159.0 Z" />
	<path style="fill:#c8d6fb;" d="M 260.0,161.0 L 261.0,162.0 260.0,161.0 Z" />
	<path style="fill:#676767;" d="M 340.0,162.0 L 341.0,163.0 340.0,162.0 Z" />
	<path style="fill:#dbdbdb;" d="M 339.0,163.0 L 340.0,164.0 339.0,163.0 Z" />
	<path style="fill:#c8d6fb;" d="M 254.667,164.333 C 254.222,164.778 255.278,164.722 255.333,164.667 255.778,164.222 254.722,164.278 254.667,164.333 Z" />
	<path style="fill:#454545;" d="M 339.0,164.0 L 340.0,165.0 339.0,164.0 Z" />
	<path style="fill:#dae4fd;" d="M 231.0,165.0 L 231.0,196.0 232.0,196.0 C 232.0,186.924 234.511,173.367 231.0,165.0 Z" />
	<path style="fill:#dbdbdb;" d="M 338.0,165.0 L 339.0,166.0 338.0,165.0 Z" />
	<path style="fill:#787878;" d="M 338.0,166.0 L 339.0,167.0 338.0,166.0 Z" />
	<path style="fill:#919191;" d="M 356.667,166.333 C 356.222,166.778 357.278,166.722 357.333,166.667 357.778,166.222 356.722,166.278 356.667,166.333 Z" />
	<path style="fill:#dbdbdb;" d="M 358.0,166.0 L 359.0,167.0 358.0,166.0 Z" />
	<path style="fill:#ffffff;" d="M 374.0,186.0 L 374.0,166.0 C 368.485,166.0 360.032,164.531 355.279,167.938 350.895,171.08 350.578,181.919 355.303,184.972 359.662,187.789 368.958,186.0 374.0,186.0 Z" />
	<path style="fill:#bababa;" d="M 374.0,166.0 L 374.0,186.0 375.0,186.0 C 375.0,179.831 376.398,171.715 374.0,166.0 Z" />
	<path style="fill:#565656;" d="M 354.0,167.0 L 355.0,168.0 354.0,167.0 Z" />
	<path style="fill:#dbdbdb;" d="M 337.0,168.0 L 338.0,169.0 337.0,168.0 Z" />
	<path style="fill:#787878;" d="M 353.0,168.0 L 354.0,169.0 353.0,168.0 Z" />
	<path style="fill:#919191;" d="M 337.0,169.0 L 338.0,170.0 337.0,169.0 Z" />
	<path style="fill:#565656;" d="M 337.0,170.0 L 338.0,171.0 337.0,170.0 Z" />
	<path style="fill:#919191;" d="M 352.0,170.0 L 353.0,171.0 352.0,170.0 Z" />
	<path style="fill:#bababa;" d="M 352.0,171.0 L 353.0,172.0 352.0,171.0 Z" />
	<path style="fill:#dbdbdb;" d="M 336.333,173.667 C 336.278,173.722 336.222,174.778 336.667,174.333 336.722,174.278 336.778,173.222 336.333,173.667 Z" />
	<path style="fill:#232323;" d="M 351.0,174.0 L 351.0,177.0 352.0,177.0 C 351.749,175.548 351.685,175.248 351.0,174.0 Z" />
	<path style="fill:#bababa;" d="M 336.333,175.667 C 336.278,175.722 336.222,176.778 336.667,176.333 336.722,176.278 336.778,175.222 336.333,175.667 Z" />
	<path style="fill:#dbdbdb;" d="M 336.333,177.667 C 336.278,177.722 336.222,178.778 336.667,178.333 336.722,178.278 336.778,177.222 336.333,177.667 Z" />
	<path style="fill:#232323;" d="M 429.333,179.667 C 429.278,179.722 429.222,180.778 429.667,180.333 429.722,180.278 429.778,179.222 429.333,179.667 Z" />
	<path style="fill:#787878;" d="M 519.0,179.0 L 519.0,182.0 520.0,182.0 C 519.749,180.548 519.685,180.248 519.0,179.0 Z" />
	<path style="fill:#bababa;" d="M 535.333,179.667 C 535.278,179.722 535.222,180.778 535.667,180.333 535.722,180.278 535.778,179.222 535.333,179.667 M 557.333,179.667 C 557.278,179.722 557.222,180.778 557.667,180.333 557.722,180.278 557.778,179.222 557.333,179.667 M 352.0,180.0 L 353.0,181.0 352.0,180.0 Z" />
	<path style="fill:#787878;" d="M 573.0,180.0 L 573.0,183.0 574.0,183.0 C 573.749,181.548 573.685,181.248 573.0,180.0 Z" />
	<path style="fill:#454545;" d="M 337.0,181.0 L 338.0,182.0 337.0,181.0 Z" />
	<path style="fill:#919191;" d="M 352.0,181.0 L 353.0,182.0 352.0,181.0 Z" />
	<path style="fill:#787878;" d="M 535.0,181.0 L 536.0,182.0 535.0,181.0 M 557.0,181.0 L 558.0,182.0 557.0,181.0 M 337.0,182.0 L 338.0,183.0 337.0,182.0 Z" />
	<path style="fill:#565656;" d="M 352.0,182.0 L 353.0,183.0 352.0,182.0 Z" />
	<path style="fill:#dbdbdb;" d="M 430.0,182.0 L 431.0,183.0 430.0,182.0 M 519.333,182.667 C 519.278,182.722 519.222,183.778 519.667,183.333 519.722,183.278 519.778,182.222 519.333,182.667 Z" />
	<path style="fill:#343434;" d="M 557.0,182.0 L 558.0,183.0 557.0,182.0 Z" />
	<path style="fill:#bababa;" d="M 337.0,183.0 L 338.0,184.0 337.0,183.0 Z" />
	<path style="fill:#919191;" d="M 430.0,183.0 L 431.0,184.0 430.0,183.0 M 536.0,183.0 L 537.0,184.0 536.0,183.0 Z" />
	<path style="fill:#bababa;" d="M 556.0,183.0 L 557.0,184.0 556.0,183.0 M 573.0,183.0 L 574.0,184.0 573.0,183.0 Z" />
	<path style="fill:#919191;" d="M 353.0,184.0 L 354.0,185.0 353.0,184.0 M 414.0,184.0 L 414.0,187.0 415.0,187.0 C 414.749,185.548 414.685,185.248 414.0,184.0 Z" />
	<path style="fill:#bababa;" d="M 431.0,184.0 L 432.0,185.0 431.0,184.0 Z" />
	<path style="fill:#565656;" d="M 338.0,185.0 L 339.0,186.0 338.0,185.0 Z" />
	<path style="fill:#919191;" d="M 354.0,185.0 L 355.0,186.0 354.0,185.0 Z" />
	<path style="fill:#565656;" d="M 432.0,185.0 L 433.0,186.0 432.0,185.0 Z" />
	<path style="fill:#919191;" d="M 433.0,185.0 L 434.0,186.0 433.0,185.0 Z" />
	<path style="fill:#dbdbdb;" d="M 434.0,185.0 L 435.0,186.0 434.0,185.0 Z" />
	<path style="fill:#343434;" d="M 520.0,185.0 L 521.0,186.0 520.0,185.0 Z" />
	<path style="fill:#919191;" d="M 538.0,185.0 L 539.0,186.0 538.0,185.0 M 554.0,185.0 L 555.0,186.0 554.0,185.0 Z" />
	<path style="fill:#343434;" d="M 572.0,185.0 L 573.0,186.0 572.0,185.0 Z" />
	<path style="fill:#454545;" d="M 277.0,186.0 L 277.0,196.0 278.0,196.0 C 278.0,192.586 278.327,189.163 277.0,186.0 Z" />
	<path style="fill:#232323;" d="M 327.0,186.0 L 327.0,196.0 328.0,196.0 C 328.0,192.586 328.327,189.163 327.0,186.0 Z" />
	<path style="fill:#bababa;" d="M 338.0,186.0 L 339.0,187.0 338.0,186.0 M 441.0,186.0 L 441.0,196.0 442.0,196.0 C 442.0,192.586 442.327,189.163 441.0,186.0 Z" />
	<path style="fill:#919191;" d="M 520.0,186.0 L 521.0,187.0 520.0,186.0 M 572.0,186.0 L 573.0,187.0 572.0,186.0 Z" />
	<path style="fill:#dbdbdb;" d="M 414.0,187.0 L 415.0,188.0 414.0,187.0 Z" />
	<path style="fill:#919191;" d="M 339.0,188.0 L 340.0,189.0 339.0,188.0 Z" />
	<path style="fill:#454545;" d="M 521.0,188.0 L 522.0,189.0 521.0,188.0 M 571.0,188.0 L 572.0,189.0 571.0,188.0 M 340.0,189.0 L 341.0,190.0 340.0,189.0 Z" />
	<path style="fill:#919191;" d="M 415.0,189.0 L 416.0,190.0 415.0,189.0 Z" />
	<path style="fill:#bababa;" d="M 521.0,189.0 L 522.0,190.0 521.0,189.0 M 571.0,189.0 L 572.0,190.0 571.0,189.0 Z" />
	<path style="fill:#676767;" d="M 522.0,190.0 L 523.0,191.0 522.0,190.0 Z" />
	<path style="fill:#787878;" d="M 570.0,190.0 L 571.0,191.0 570.0,190.0 Z" />
	<path style="fill:#bababa;" d="M 341.0,191.0 L 342.0,192.0 341.0,191.0 Z" />
	<path style="fill:#919191;" d="M 416.0,191.0 L 417.0,192.0 416.0,191.0 Z" />
	<path style="fill:#343434;" d="M 523.0,191.0 L 524.0,192.0 523.0,191.0 M 569.0,191.0 L 570.0,192.0 569.0,191.0 Z" />
	<path style="fill:#bababa;" d="M 342.0,192.0 L 343.0,193.0 342.0,192.0 Z" />
	<path style="fill:#676767;" d="M 417.0,192.0 L 418.0,193.0 417.0,192.0 Z" />
	<path style="fill:#343434;" d="M 524.0,192.0 L 525.0,193.0 524.0,192.0 Z" />
	<path style="fill:#454545;" d="M 568.0,192.0 L 569.0,193.0 568.0,192.0 Z" />
	<path style="fill:#dbdbdb;" d="M 343.0,193.0 L 344.0,194.0 343.0,193.0 Z" />
	<path style="fill:#919191;" d="M 418.0,193.0 L 419.0,194.0 418.0,193.0 Z" />
	<path style="fill:#676767;" d="M 525.0,193.0 L 526.0,194.0 525.0,193.0 Z" />
	<path style="fill:#919191;" d="M 567.0,193.0 L 568.0,194.0 567.0,193.0 Z" />
	<path style="fill:#787878;" d="M 345.0,194.0 L 346.0,195.0 345.0,194.0 Z" />
	<path style="fill:#919191;" d="M 420.0,194.0 L 421.0,195.0 420.0,194.0 Z" />
	<path style="fill:#dbdbdb;" d="M 526.0,194.0 L 527.0,195.0 526.0,194.0 Z" />
	<path style="fill:#676767;" d="M 527.0,194.0 L 528.0,195.0 527.0,194.0 Z" />
	<path style="fill:#787878;" d="M 565.0,194.0 L 566.0,195.0 565.0,194.0 Z" />
	<path style="fill:#676767;" d="M 347.667,195.333 C 347.222,195.778 348.278,195.722 348.333,195.667 348.778,195.222 347.722,195.278 347.667,195.333 Z" />
	<path style="fill:#dbdbdb;" d="M 422.0,195.0 L 423.0,196.0 422.0,195.0 Z" />
	<path style="fill:#919191;" d="M 423.667,195.333 C 423.222,195.778 424.278,195.722 424.333,195.667 424.778,195.222 423.722,195.278 423.667,195.333 Z" />
	<path style="fill:#565656;" d="M 425.0,195.0 L 426.0,196.0 425.0,195.0 Z" />
	<path style="fill:#919191;" d="M 529.0,195.0 L 529.0,196.0 532.0,196.0 C 530.752,195.315 530.452,195.251 529.0,195.0 M 561.0,195.0 L 561.0,196.0 564.0,196.0 C 562.752,195.315 562.452,195.251 561.0,195.0 Z" />
</g>
</svg>